<svg xmlns="http://www.w3.org/2000/svg" xmlns:xlink="http://www.w3.org/1999/xlink" width="500" zoomAndPan="magnify" viewBox="0 0 375 374.999991" height="500" preserveAspectRatio="xMidYMid meet" version="1.0"><defs><g/></defs><g fill="#ffffff" fill-opacity="1"><g transform="translate(-2.533905, 231.911256)"><g><path d="M 45 -104.25 C 41.363281 -104.039062 38.710938 -103.632812 37.046875 -103.03125 C 35.378906 -102.425781 34.242188 -101.265625 33.640625 -99.546875 C 33.035156 -97.828125 32.734375 -95.050781 32.734375 -91.21875 L 32.734375 -16.0625 C 32.734375 -12.21875 33.035156 -9.4375 33.640625 -7.71875 C 34.242188 -6.007812 35.378906 -4.875 37.046875 -4.3125 C 38.710938 -3.757812 41.363281 -3.484375 45 -3.484375 L 56.0625 -3.484375 C 62.320312 -3.484375 67.09375 -4.363281 70.375 -6.125 C 73.65625 -7.894531 76.050781 -10.75 77.5625 -14.6875 C 79.082031 -18.632812 80.195312 -24.34375 80.90625 -31.8125 L 84.390625 -31.8125 C 84.085938 -28.6875 83.9375 -24.546875 83.9375 -19.390625 C 83.9375 -13.628906 84.289062 -7.164062 85 0 C 78.132812 -0.300781 66.566406 -0.453125 50.296875 -0.453125 C 30.910156 -0.453125 16.265625 -0.300781 6.359375 0 L 6.359375 -3.03125 C 9.992188 -3.226562 12.644531 -3.628906 14.3125 -4.234375 C 15.976562 -4.847656 17.113281 -6.007812 17.71875 -7.71875 C 18.332031 -9.4375 18.640625 -12.21875 18.640625 -16.0625 L 18.640625 -91.21875 C 18.640625 -95.050781 18.332031 -97.828125 17.71875 -99.546875 C 17.113281 -101.265625 15.976562 -102.425781 14.3125 -103.03125 C 12.644531 -103.632812 9.992188 -104.039062 6.359375 -104.25 L 6.359375 -107.265625 C 10.609375 -106.960938 17.070312 -106.8125 25.75 -106.8125 C 33.832031 -106.8125 40.25 -106.960938 45 -107.265625 Z M 45 -104.25 "/></g></g></g><g fill="#ffffff" fill-opacity="1"><g transform="translate(39.147471, 245.036801)"><g><path d="M 41.28125 -92.796875 C 56.75 -92.796875 68.328125 -88.925781 76.015625 -81.1875 C 83.703125 -73.457031 87.546875 -62.207031 87.546875 -47.4375 C 87.546875 -37.914062 85.664062 -29.570312 81.90625 -22.40625 C 78.15625 -15.25 72.71875 -9.722656 65.59375 -5.828125 C 58.476562 -1.941406 49.984375 0 40.109375 0 L 32.5 -0.125 C 27.601562 -0.300781 24.019531 -0.390625 21.75 -0.390625 C 14.59375 -0.390625 9.175781 -0.257812 5.5 0 L 5.5 -2.625 C 8.644531 -2.800781 10.9375 -3.148438 12.375 -3.671875 C 13.820312 -4.191406 14.804688 -5.191406 15.328125 -6.671875 C 15.859375 -8.160156 16.125 -10.566406 16.125 -13.890625 L 16.125 -78.90625 C 16.125 -82.21875 15.859375 -84.617188 15.328125 -86.109375 C 14.804688 -87.597656 13.820312 -88.601562 12.375 -89.125 C 10.9375 -89.644531 8.644531 -89.992188 5.5 -90.171875 L 5.5 -92.796875 C 8.5625 -92.535156 12.800781 -92.40625 18.21875 -92.40625 L 29.359375 -92.53125 C 35.296875 -92.707031 39.269531 -92.796875 41.28125 -92.796875 Z M 38.015625 -90.4375 C 35.296875 -90.4375 33.257812 -90.128906 31.90625 -89.515625 C 30.550781 -88.898438 29.613281 -87.804688 29.09375 -86.234375 C 28.570312 -84.660156 28.3125 -82.300781 28.3125 -79.15625 L 28.3125 -13.625 C 28.3125 -10.476562 28.570312 -8.117188 29.09375 -6.546875 C 29.613281 -4.972656 30.550781 -3.878906 31.90625 -3.265625 C 33.257812 -2.660156 35.335938 -2.359375 38.140625 -2.359375 C 47.398438 -2.359375 54.691406 -4.039062 60.015625 -7.40625 C 65.347656 -10.769531 69.082031 -15.679688 71.21875 -22.140625 C 73.363281 -28.609375 74.4375 -36.867188 74.4375 -46.921875 C 74.4375 -56.972656 73.253906 -65.164062 70.890625 -71.5 C 68.535156 -77.832031 64.710938 -82.570312 59.421875 -85.71875 C 54.140625 -88.863281 47.003906 -90.4375 38.015625 -90.4375 Z M 38.015625 -90.4375 "/></g></g></g><g fill="#ffffff" fill-opacity="1"><g transform="translate(35.061557, 244.751081)"><g><path d="M 41.28125 -92.796875 C 56.75 -92.796875 68.328125 -88.925781 76.015625 -81.1875 C 83.703125 -73.457031 87.546875 -62.207031 87.546875 -47.4375 C 87.546875 -37.914062 85.664062 -29.570312 81.90625 -22.40625 C 78.15625 -15.25 72.71875 -9.722656 65.59375 -5.828125 C 58.476562 -1.941406 49.984375 0 40.109375 0 L 32.5 -0.125 C 27.601562 -0.300781 24.019531 -0.390625 21.75 -0.390625 C 14.59375 -0.390625 9.175781 -0.257812 5.5 0 L 5.5 -2.625 C 8.644531 -2.800781 10.9375 -3.148438 12.375 -3.671875 C 13.820312 -4.191406 14.804688 -5.191406 15.328125 -6.671875 C 15.859375 -8.160156 16.125 -10.566406 16.125 -13.890625 L 16.125 -78.90625 C 16.125 -82.21875 15.859375 -84.617188 15.328125 -86.109375 C 14.804688 -87.597656 13.820312 -88.601562 12.375 -89.125 C 10.9375 -89.644531 8.644531 -89.992188 5.5 -90.171875 L 5.5 -92.796875 C 8.5625 -92.535156 12.800781 -92.40625 18.21875 -92.40625 L 29.359375 -92.53125 C 35.296875 -92.707031 39.269531 -92.796875 41.28125 -92.796875 Z M 38.015625 -90.4375 C 35.296875 -90.4375 33.257812 -90.128906 31.90625 -89.515625 C 30.550781 -88.898438 29.613281 -87.804688 29.09375 -86.234375 C 28.570312 -84.660156 28.3125 -82.300781 28.3125 -79.15625 L 28.3125 -13.625 C 28.3125 -10.476562 28.570312 -8.117188 29.09375 -6.546875 C 29.613281 -4.972656 30.550781 -3.878906 31.90625 -3.265625 C 33.257812 -2.660156 35.335938 -2.359375 38.140625 -2.359375 C 47.398438 -2.359375 54.691406 -4.039062 60.015625 -7.40625 C 65.347656 -10.769531 69.082031 -15.679688 71.21875 -22.140625 C 73.363281 -28.609375 74.4375 -36.867188 74.4375 -46.921875 C 74.4375 -56.972656 73.253906 -65.164062 70.890625 -71.5 C 68.535156 -77.832031 64.710938 -82.570312 59.421875 -85.71875 C 54.140625 -88.863281 47.003906 -90.4375 38.015625 -90.4375 Z M 38.015625 -90.4375 "/></g></g></g><g fill="#ffffff" fill-opacity="1"><g transform="translate(142.024086, 217.376485)"><g><path d="M 5.15625 0.078125 C 4.300781 0.078125 3.53125 -0.109375 2.84375 -0.484375 C 2.15625 -0.867188 1.613281 -1.394531 1.21875 -2.0625 C 0.832031 -2.738281 0.640625 -3.488281 0.640625 -4.3125 C 0.640625 -5.144531 0.832031 -5.894531 1.21875 -6.5625 C 1.613281 -7.238281 2.15625 -7.765625 2.84375 -8.140625 C 3.539062 -8.523438 4.316406 -8.71875 5.171875 -8.71875 C 5.816406 -8.71875 6.410156 -8.609375 6.953125 -8.390625 C 7.492188 -8.179688 7.953125 -7.867188 8.328125 -7.453125 L 7.75 -6.875 C 7.070312 -7.5625 6.222656 -7.90625 5.203125 -7.90625 C 4.515625 -7.90625 3.890625 -7.75 3.328125 -7.4375 C 2.773438 -7.125 2.335938 -6.691406 2.015625 -6.140625 C 1.703125 -5.597656 1.546875 -4.988281 1.546875 -4.3125 C 1.546875 -3.644531 1.703125 -3.035156 2.015625 -2.484375 C 2.335938 -1.941406 2.773438 -1.515625 3.328125 -1.203125 C 3.890625 -0.890625 4.515625 -0.734375 5.203125 -0.734375 C 6.234375 -0.734375 7.082031 -1.082031 7.75 -1.78125 L 8.328125 -1.203125 C 7.953125 -0.785156 7.488281 -0.46875 6.9375 -0.25 C 6.394531 -0.03125 5.800781 0.078125 5.15625 0.078125 Z M 5.15625 0.078125 "/></g></g></g><g fill="#ffffff" fill-opacity="1"><g transform="translate(156.364952, 217.376485)"><g><path d="M 1.40625 -8.640625 L 2.328125 -8.640625 L 2.328125 -0.796875 L 7.15625 -0.796875 L 7.15625 0 L 1.40625 0 Z M 1.40625 -8.640625 "/></g></g></g><g fill="#ffffff" fill-opacity="1"><g transform="translate(169.102054, 217.376485)"><g><path d="M 7.515625 -0.796875 L 7.515625 0 L 1.40625 0 L 1.40625 -8.640625 L 7.328125 -8.640625 L 7.328125 -7.84375 L 2.328125 -7.84375 L 2.328125 -4.78125 L 6.78125 -4.78125 L 6.78125 -4 L 2.328125 -4 L 2.328125 -0.796875 Z M 7.515625 -0.796875 "/></g></g></g><g fill="#ffffff" fill-opacity="1"><g transform="translate(182.826084, 217.376485)"><g><path d="M 6.828125 -2.3125 L 2.015625 -2.3125 L 0.96875 0 L 0.03125 0 L 3.96875 -8.640625 L 4.875 -8.640625 L 8.828125 0 L 7.859375 0 Z M 6.5 -3.046875 L 4.421875 -7.6875 L 2.34375 -3.046875 Z M 6.5 -3.046875 "/></g></g></g><g fill="#ffffff" fill-opacity="1"><g transform="translate(197.142276, 217.376485)"><g><path d="M 8.625 -8.640625 L 8.625 0 L 7.875 0 L 2.328125 -7.015625 L 2.328125 0 L 1.40625 0 L 1.40625 -8.640625 L 2.15625 -8.640625 L 7.734375 -1.625 L 7.734375 -8.640625 Z M 8.625 -8.640625 "/></g></g></g><g fill="#ffffff" fill-opacity="1"><g transform="translate(212.642776, 217.376485)"><g><path d="M 1.40625 -8.640625 L 2.328125 -8.640625 L 2.328125 0 L 1.40625 0 Z M 1.40625 -8.640625 "/></g></g></g><g fill="#ffffff" fill-opacity="1"><g transform="translate(221.83926, 217.376485)"><g><path d="M 8.625 -8.640625 L 8.625 0 L 7.875 0 L 2.328125 -7.015625 L 2.328125 0 L 1.40625 0 L 1.40625 -8.640625 L 2.15625 -8.640625 L 7.734375 -1.625 L 7.734375 -8.640625 Z M 8.625 -8.640625 "/></g></g></g><g fill="#ffffff" fill-opacity="1"><g transform="translate(237.33976, 217.376485)"><g><path d="M 7.5 -4.3125 L 8.375 -4.3125 L 8.375 -1.03125 C 7.96875 -0.675781 7.488281 -0.398438 6.9375 -0.203125 C 6.382812 -0.015625 5.804688 0.078125 5.203125 0.078125 C 4.335938 0.078125 3.554688 -0.109375 2.859375 -0.484375 C 2.171875 -0.867188 1.628906 -1.394531 1.234375 -2.0625 C 0.835938 -2.738281 0.640625 -3.488281 0.640625 -4.3125 C 0.640625 -5.144531 0.835938 -5.894531 1.234375 -6.5625 C 1.628906 -7.238281 2.171875 -7.765625 2.859375 -8.140625 C 3.554688 -8.523438 4.335938 -8.71875 5.203125 -8.71875 C 5.867188 -8.71875 6.472656 -8.609375 7.015625 -8.390625 C 7.566406 -8.179688 8.035156 -7.875 8.421875 -7.46875 L 7.84375 -6.890625 C 7.164062 -7.566406 6.300781 -7.90625 5.25 -7.90625 C 4.550781 -7.90625 3.914062 -7.75 3.34375 -7.4375 C 2.78125 -7.125 2.335938 -6.691406 2.015625 -6.140625 C 1.703125 -5.597656 1.546875 -4.988281 1.546875 -4.3125 C 1.546875 -3.644531 1.703125 -3.035156 2.015625 -2.484375 C 2.335938 -1.941406 2.78125 -1.515625 3.34375 -1.203125 C 3.90625 -0.890625 4.535156 -0.734375 5.234375 -0.734375 C 6.117188 -0.734375 6.875 -0.957031 7.5 -1.40625 Z M 7.5 -4.3125 "/></g></g></g><g fill="#ffffff" fill-opacity="1"><g transform="translate(252.346796, 217.376485)"><g/></g></g><g fill="#ffffff" fill-opacity="1"><g transform="translate(261.049816, 217.376485)"><g><path d="M 3.796875 0.078125 C 3.148438 0.078125 2.53125 -0.0234375 1.9375 -0.234375 C 1.351562 -0.441406 0.898438 -0.710938 0.578125 -1.046875 L 0.9375 -1.75 C 1.25 -1.4375 1.664062 -1.179688 2.1875 -0.984375 C 2.707031 -0.796875 3.242188 -0.703125 3.796875 -0.703125 C 4.566406 -0.703125 5.144531 -0.84375 5.53125 -1.125 C 5.914062 -1.414062 6.109375 -1.785156 6.109375 -2.234375 C 6.109375 -2.578125 6.003906 -2.851562 5.796875 -3.0625 C 5.585938 -3.269531 5.328125 -3.425781 5.015625 -3.53125 C 4.710938 -3.644531 4.289062 -3.769531 3.75 -3.90625 C 3.101562 -4.0625 2.582031 -4.21875 2.1875 -4.375 C 1.800781 -4.53125 1.472656 -4.765625 1.203125 -5.078125 C 0.929688 -5.390625 0.796875 -5.8125 0.796875 -6.34375 C 0.796875 -6.78125 0.910156 -7.175781 1.140625 -7.53125 C 1.367188 -7.894531 1.71875 -8.179688 2.1875 -8.390625 C 2.664062 -8.609375 3.257812 -8.71875 3.96875 -8.71875 C 4.46875 -8.71875 4.953125 -8.648438 5.421875 -8.515625 C 5.898438 -8.378906 6.3125 -8.191406 6.65625 -7.953125 L 6.34375 -7.21875 C 5.976562 -7.457031 5.585938 -7.632812 5.171875 -7.75 C 4.765625 -7.875 4.363281 -7.9375 3.96875 -7.9375 C 3.21875 -7.9375 2.648438 -7.789062 2.265625 -7.5 C 1.878906 -7.207031 1.6875 -6.832031 1.6875 -6.375 C 1.6875 -6.019531 1.789062 -5.738281 2 -5.53125 C 2.21875 -5.320312 2.484375 -5.160156 2.796875 -5.046875 C 3.109375 -4.941406 3.535156 -4.820312 4.078125 -4.6875 C 4.710938 -4.53125 5.222656 -4.375 5.609375 -4.21875 C 6.003906 -4.070312 6.335938 -3.84375 6.609375 -3.53125 C 6.878906 -3.226562 7.015625 -2.8125 7.015625 -2.28125 C 7.015625 -1.84375 6.894531 -1.445312 6.65625 -1.09375 C 6.425781 -0.738281 6.066406 -0.453125 5.578125 -0.234375 C 5.085938 -0.0234375 4.492188 0.078125 3.796875 0.078125 Z M 3.796875 0.078125 "/></g></g></g><g fill="#ffffff" fill-opacity="1"><g transform="translate(274.10767, 217.376485)"><g><path d="M 7.515625 -0.796875 L 7.515625 0 L 1.40625 0 L 1.40625 -8.640625 L 7.328125 -8.640625 L 7.328125 -7.84375 L 2.328125 -7.84375 L 2.328125 -4.78125 L 6.78125 -4.78125 L 6.78125 -4 L 2.328125 -4 L 2.328125 -0.796875 Z M 7.515625 -0.796875 "/></g></g></g><g fill="#ffffff" fill-opacity="1"><g transform="translate(287.831697, 217.376485)"><g><path d="M 7.3125 0 L 5.328125 -2.78125 C 5.109375 -2.75 4.878906 -2.734375 4.640625 -2.734375 L 2.328125 -2.734375 L 2.328125 0 L 1.40625 0 L 1.40625 -8.640625 L 4.640625 -8.640625 C 5.742188 -8.640625 6.609375 -8.375 7.234375 -7.84375 C 7.859375 -7.320312 8.171875 -6.597656 8.171875 -5.671875 C 8.171875 -5.003906 8 -4.4375 7.65625 -3.96875 C 7.3125 -3.5 6.828125 -3.164062 6.203125 -2.96875 L 8.3125 0 Z M 4.609375 -3.515625 C 5.472656 -3.515625 6.128906 -3.703125 6.578125 -4.078125 C 7.035156 -4.460938 7.265625 -4.992188 7.265625 -5.671875 C 7.265625 -6.378906 7.035156 -6.914062 6.578125 -7.28125 C 6.128906 -7.65625 5.472656 -7.84375 4.609375 -7.84375 L 2.328125 -7.84375 L 2.328125 -3.515625 Z M 4.609375 -3.515625 "/></g></g></g><g fill="#ffffff" fill-opacity="1"><g transform="translate(302.221909, 217.376485)"><g><path d="M 8.59375 -8.640625 L 4.765625 0 L 3.859375 0 L 0.03125 -8.640625 L 1.03125 -8.640625 L 4.328125 -1.140625 L 7.671875 -8.640625 Z M 8.59375 -8.640625 "/></g></g></g><g fill="#ffffff" fill-opacity="1"><g transform="translate(316.303696, 217.376485)"><g><path d="M 1.40625 -8.640625 L 2.328125 -8.640625 L 2.328125 0 L 1.40625 0 Z M 1.40625 -8.640625 "/></g></g></g><g fill="#ffffff" fill-opacity="1"><g transform="translate(325.500181, 217.376485)"><g><path d="M 5.15625 0.078125 C 4.300781 0.078125 3.53125 -0.109375 2.84375 -0.484375 C 2.15625 -0.867188 1.613281 -1.394531 1.21875 -2.0625 C 0.832031 -2.738281 0.640625 -3.488281 0.640625 -4.3125 C 0.640625 -5.144531 0.832031 -5.894531 1.21875 -6.5625 C 1.613281 -7.238281 2.15625 -7.765625 2.84375 -8.140625 C 3.539062 -8.523438 4.316406 -8.71875 5.171875 -8.71875 C 5.816406 -8.71875 6.410156 -8.609375 6.953125 -8.390625 C 7.492188 -8.179688 7.953125 -7.867188 8.328125 -7.453125 L 7.75 -6.875 C 7.070312 -7.5625 6.222656 -7.90625 5.203125 -7.90625 C 4.515625 -7.90625 3.890625 -7.75 3.328125 -7.4375 C 2.773438 -7.125 2.335938 -6.691406 2.015625 -6.140625 C 1.703125 -5.597656 1.546875 -4.988281 1.546875 -4.3125 C 1.546875 -3.644531 1.703125 -3.035156 2.015625 -2.484375 C 2.335938 -1.941406 2.773438 -1.515625 3.328125 -1.203125 C 3.890625 -0.890625 4.515625 -0.734375 5.203125 -0.734375 C 6.234375 -0.734375 7.082031 -1.082031 7.75 -1.78125 L 8.328125 -1.203125 C 7.953125 -0.785156 7.488281 -0.46875 6.9375 -0.25 C 6.394531 -0.03125 5.800781 0.078125 5.15625 0.078125 Z M 5.15625 0.078125 "/></g></g></g><g fill="#ffffff" fill-opacity="1"><g transform="translate(339.841044, 217.376485)"><g><path d="M 7.515625 -0.796875 L 7.515625 0 L 1.40625 0 L 1.40625 -8.640625 L 7.328125 -8.640625 L 7.328125 -7.84375 L 2.328125 -7.84375 L 2.328125 -4.78125 L 6.78125 -4.78125 L 6.78125 -4 L 2.328125 -4 L 2.328125 -0.796875 Z M 7.515625 -0.796875 "/></g></g></g><g fill="#ffffff" fill-opacity="1"><g transform="translate(353.565071, 217.376485)"><g><path d="M 3.796875 0.078125 C 3.148438 0.078125 2.53125 -0.0234375 1.9375 -0.234375 C 1.351562 -0.441406 0.898438 -0.710938 0.578125 -1.046875 L 0.9375 -1.75 C 1.25 -1.4375 1.664062 -1.179688 2.1875 -0.984375 C 2.707031 -0.796875 3.242188 -0.703125 3.796875 -0.703125 C 4.566406 -0.703125 5.144531 -0.84375 5.53125 -1.125 C 5.914062 -1.414062 6.109375 -1.785156 6.109375 -2.234375 C 6.109375 -2.578125 6.003906 -2.851562 5.796875 -3.0625 C 5.585938 -3.269531 5.328125 -3.425781 5.015625 -3.53125 C 4.710938 -3.644531 4.289062 -3.769531 3.75 -3.90625 C 3.101562 -4.0625 2.582031 -4.21875 2.1875 -4.375 C 1.800781 -4.53125 1.472656 -4.765625 1.203125 -5.078125 C 0.929688 -5.390625 0.796875 -5.8125 0.796875 -6.34375 C 0.796875 -6.78125 0.910156 -7.175781 1.140625 -7.53125 C 1.367188 -7.894531 1.71875 -8.179688 2.1875 -8.390625 C 2.664062 -8.609375 3.257812 -8.71875 3.96875 -8.71875 C 4.46875 -8.71875 4.953125 -8.648438 5.421875 -8.515625 C 5.898438 -8.378906 6.3125 -8.191406 6.65625 -7.953125 L 6.34375 -7.21875 C 5.976562 -7.457031 5.585938 -7.632812 5.171875 -7.75 C 4.765625 -7.875 4.363281 -7.9375 3.96875 -7.9375 C 3.21875 -7.9375 2.648438 -7.789062 2.265625 -7.5 C 1.878906 -7.207031 1.6875 -6.832031 1.6875 -6.375 C 1.6875 -6.019531 1.789062 -5.738281 2 -5.53125 C 2.21875 -5.320312 2.484375 -5.160156 2.796875 -5.046875 C 3.109375 -4.941406 3.535156 -4.820312 4.078125 -4.6875 C 4.710938 -4.53125 5.222656 -4.375 5.609375 -4.21875 C 6.003906 -4.070312 6.335938 -3.84375 6.609375 -3.53125 C 6.878906 -3.226562 7.015625 -2.8125 7.015625 -2.28125 C 7.015625 -1.84375 6.894531 -1.445312 6.65625 -1.09375 C 6.425781 -0.738281 6.066406 -0.453125 5.578125 -0.234375 C 5.085938 -0.0234375 4.492188 0.078125 3.796875 0.078125 Z M 3.796875 0.078125 "/></g></g></g><g fill="#ffffff" fill-opacity="1"><g transform="translate(151.662905, 189.140253)"><g><path d="M 8.5 -19.6875 C 7.8125 -19.644531 7.304688 -19.566406 6.984375 -19.453125 C 6.671875 -19.335938 6.457031 -19.117188 6.34375 -18.796875 C 6.226562 -18.472656 6.171875 -17.945312 6.171875 -17.21875 L 6.171875 -3.03125 C 6.171875 -2.3125 6.226562 -1.785156 6.34375 -1.453125 C 6.457031 -1.128906 6.671875 -0.914062 6.984375 -0.8125 C 7.304688 -0.707031 7.8125 -0.65625 8.5 -0.65625 L 10.578125 -0.65625 C 11.765625 -0.65625 12.664062 -0.820312 13.28125 -1.15625 C 13.90625 -1.488281 14.359375 -2.023438 14.640625 -2.765625 C 14.929688 -3.515625 15.144531 -4.597656 15.28125 -6.015625 L 15.9375 -6.015625 C 15.875 -5.421875 15.84375 -4.632812 15.84375 -3.65625 C 15.84375 -2.570312 15.910156 -1.351562 16.046875 0 C 14.753906 -0.0507812 12.570312 -0.078125 9.5 -0.078125 C 5.832031 -0.078125 3.066406 -0.0507812 1.203125 0 L 1.203125 -0.578125 C 1.890625 -0.609375 2.390625 -0.679688 2.703125 -0.796875 C 3.015625 -0.910156 3.226562 -1.128906 3.34375 -1.453125 C 3.457031 -1.785156 3.515625 -2.3125 3.515625 -3.03125 L 3.515625 -17.21875 C 3.515625 -17.945312 3.457031 -18.472656 3.34375 -18.796875 C 3.226562 -19.117188 3.015625 -19.335938 2.703125 -19.453125 C 2.390625 -19.566406 1.890625 -19.644531 1.203125 -19.6875 L 1.203125 -20.25 C 2.003906 -20.195312 3.222656 -20.171875 4.859375 -20.171875 C 6.390625 -20.171875 7.601562 -20.195312 8.5 -20.25 Z M 8.5 -19.6875 "/></g></g></g><g fill="#ffffff" fill-opacity="1"><g transform="translate(168.479782, 189.140253)"><g><path d="M 8.5 -19.6875 C 7.8125 -19.644531 7.304688 -19.566406 6.984375 -19.453125 C 6.671875 -19.335938 6.457031 -19.117188 6.34375 -18.796875 C 6.226562 -18.472656 6.171875 -17.945312 6.171875 -17.21875 L 6.171875 -3.03125 C 6.171875 -2.3125 6.226562 -1.785156 6.34375 -1.453125 C 6.457031 -1.128906 6.671875 -0.910156 6.984375 -0.796875 C 7.304688 -0.679688 7.8125 -0.609375 8.5 -0.578125 L 8.5 0 C 7.625 -0.0507812 6.410156 -0.078125 4.859375 -0.078125 C 3.222656 -0.078125 2.003906 -0.0507812 1.203125 0 L 1.203125 -0.578125 C 1.890625 -0.609375 2.390625 -0.679688 2.703125 -0.796875 C 3.015625 -0.910156 3.226562 -1.128906 3.34375 -1.453125 C 3.457031 -1.785156 3.515625 -2.3125 3.515625 -3.03125 L 3.515625 -17.21875 C 3.515625 -17.945312 3.457031 -18.472656 3.34375 -18.796875 C 3.226562 -19.117188 3.015625 -19.335938 2.703125 -19.453125 C 2.390625 -19.566406 1.890625 -19.644531 1.203125 -19.6875 L 1.203125 -20.25 C 2.003906 -20.195312 3.222656 -20.171875 4.859375 -20.171875 C 6.390625 -20.171875 7.601562 -20.195312 8.5 -20.25 Z M 8.5 -19.6875 "/></g></g></g><g fill="#ffffff" fill-opacity="1"><g transform="translate(178.17523, 189.140253)"><g><path d="M 16.9375 -20.25 C 16.800781 -18.894531 16.734375 -17.675781 16.734375 -16.59375 C 16.734375 -15.632812 16.765625 -14.851562 16.828125 -14.25 L 16.171875 -14.25 C 16.015625 -15.71875 15.820312 -16.804688 15.59375 -17.515625 C 15.363281 -18.234375 14.960938 -18.757812 14.390625 -19.09375 C 13.816406 -19.425781 12.941406 -19.59375 11.765625 -19.59375 L 10.21875 -19.59375 L 10.21875 -3.3125 C 10.21875 -2.507812 10.289062 -1.925781 10.4375 -1.5625 C 10.59375 -1.207031 10.859375 -0.960938 11.234375 -0.828125 C 11.617188 -0.691406 12.242188 -0.609375 13.109375 -0.578125 L 13.109375 0 C 12.109375 -0.0507812 10.703125 -0.078125 8.890625 -0.078125 C 6.984375 -0.078125 5.570312 -0.0507812 4.65625 0 L 4.65625 -0.578125 C 5.519531 -0.609375 6.140625 -0.691406 6.515625 -0.828125 C 6.898438 -0.960938 7.164062 -1.207031 7.3125 -1.5625 C 7.46875 -1.925781 7.546875 -2.507812 7.546875 -3.3125 L 7.546875 -19.59375 L 6.015625 -19.59375 C 4.828125 -19.59375 3.945312 -19.425781 3.375 -19.09375 C 2.800781 -18.757812 2.398438 -18.234375 2.171875 -17.515625 C 1.941406 -16.804688 1.753906 -15.71875 1.609375 -14.25 L 0.9375 -14.25 C 1 -14.851562 1.03125 -15.632812 1.03125 -16.59375 C 1.03125 -17.675781 0.960938 -18.894531 0.828125 -20.25 C 2.410156 -20.195312 5.097656 -20.171875 8.890625 -20.171875 C 12.671875 -20.171875 15.351562 -20.195312 16.9375 -20.25 Z M 16.9375 -20.25 "/></g></g></g><g fill="#ffffff" fill-opacity="1"><g transform="translate(195.935913, 189.140253)"><g><path d="M 16.9375 -20.25 C 16.800781 -18.894531 16.734375 -17.675781 16.734375 -16.59375 C 16.734375 -15.632812 16.765625 -14.851562 16.828125 -14.25 L 16.171875 -14.25 C 16.015625 -15.71875 15.820312 -16.804688 15.59375 -17.515625 C 15.363281 -18.234375 14.960938 -18.757812 14.390625 -19.09375 C 13.816406 -19.425781 12.941406 -19.59375 11.765625 -19.59375 L 10.21875 -19.59375 L 10.21875 -3.3125 C 10.21875 -2.507812 10.289062 -1.925781 10.4375 -1.5625 C 10.59375 -1.207031 10.859375 -0.960938 11.234375 -0.828125 C 11.617188 -0.691406 12.242188 -0.609375 13.109375 -0.578125 L 13.109375 0 C 12.109375 -0.0507812 10.703125 -0.078125 8.890625 -0.078125 C 6.984375 -0.078125 5.570312 -0.0507812 4.65625 0 L 4.65625 -0.578125 C 5.519531 -0.609375 6.140625 -0.691406 6.515625 -0.828125 C 6.898438 -0.960938 7.164062 -1.207031 7.3125 -1.5625 C 7.46875 -1.925781 7.546875 -2.507812 7.546875 -3.3125 L 7.546875 -19.59375 L 6.015625 -19.59375 C 4.828125 -19.59375 3.945312 -19.425781 3.375 -19.09375 C 2.800781 -18.757812 2.398438 -18.234375 2.171875 -17.515625 C 1.941406 -16.804688 1.753906 -15.71875 1.609375 -14.25 L 0.9375 -14.25 C 1 -14.851562 1.03125 -15.632812 1.03125 -16.59375 C 1.03125 -17.675781 0.960938 -18.894531 0.828125 -20.25 C 2.410156 -20.195312 5.097656 -20.171875 8.890625 -20.171875 C 12.671875 -20.171875 15.351562 -20.195312 16.9375 -20.25 Z M 16.9375 -20.25 "/></g></g></g><g fill="#ffffff" fill-opacity="1"><g transform="translate(213.696595, 189.140253)"><g><path d="M 8.5 -19.6875 C 7.8125 -19.644531 7.304688 -19.566406 6.984375 -19.453125 C 6.671875 -19.335938 6.457031 -19.117188 6.34375 -18.796875 C 6.226562 -18.472656 6.171875 -17.945312 6.171875 -17.21875 L 6.171875 -3.03125 C 6.171875 -2.3125 6.226562 -1.785156 6.34375 -1.453125 C 6.457031 -1.128906 6.671875 -0.914062 6.984375 -0.8125 C 7.304688 -0.707031 7.8125 -0.65625 8.5 -0.65625 L 10.578125 -0.65625 C 11.765625 -0.65625 12.664062 -0.820312 13.28125 -1.15625 C 13.90625 -1.488281 14.359375 -2.023438 14.640625 -2.765625 C 14.929688 -3.515625 15.144531 -4.597656 15.28125 -6.015625 L 15.9375 -6.015625 C 15.875 -5.421875 15.84375 -4.632812 15.84375 -3.65625 C 15.84375 -2.570312 15.910156 -1.351562 16.046875 0 C 14.753906 -0.0507812 12.570312 -0.078125 9.5 -0.078125 C 5.832031 -0.078125 3.066406 -0.0507812 1.203125 0 L 1.203125 -0.578125 C 1.890625 -0.609375 2.390625 -0.679688 2.703125 -0.796875 C 3.015625 -0.910156 3.226562 -1.128906 3.34375 -1.453125 C 3.457031 -1.785156 3.515625 -2.3125 3.515625 -3.03125 L 3.515625 -17.21875 C 3.515625 -17.945312 3.457031 -18.472656 3.34375 -18.796875 C 3.226562 -19.117188 3.015625 -19.335938 2.703125 -19.453125 C 2.390625 -19.566406 1.890625 -19.644531 1.203125 -19.6875 L 1.203125 -20.25 C 2.003906 -20.195312 3.222656 -20.171875 4.859375 -20.171875 C 6.390625 -20.171875 7.601562 -20.195312 8.5 -20.25 Z M 8.5 -19.6875 "/></g></g></g><g fill="#ffffff" fill-opacity="1"><g transform="translate(230.513471, 189.140253)"><g><path d="M 15.84375 -3.65625 C 15.84375 -2.570312 15.910156 -1.351562 16.046875 0 C 14.753906 -0.0507812 12.570312 -0.078125 9.5 -0.078125 C 5.832031 -0.078125 3.066406 -0.0507812 1.203125 0 L 1.203125 -0.578125 C 1.890625 -0.609375 2.390625 -0.679688 2.703125 -0.796875 C 3.015625 -0.910156 3.226562 -1.128906 3.34375 -1.453125 C 3.457031 -1.785156 3.515625 -2.3125 3.515625 -3.03125 L 3.515625 -17.21875 C 3.515625 -17.945312 3.457031 -18.472656 3.34375 -18.796875 C 3.226562 -19.117188 3.015625 -19.335938 2.703125 -19.453125 C 2.390625 -19.566406 1.890625 -19.644531 1.203125 -19.6875 L 1.203125 -20.25 C 3.066406 -20.195312 5.832031 -20.171875 9.5 -20.171875 C 12.300781 -20.171875 14.296875 -20.195312 15.484375 -20.25 C 15.347656 -18.988281 15.28125 -17.863281 15.28125 -16.875 C 15.28125 -16.132812 15.304688 -15.546875 15.359375 -15.109375 L 14.703125 -15.109375 C 14.566406 -16.347656 14.394531 -17.265625 14.1875 -17.859375 C 13.976562 -18.460938 13.625 -18.898438 13.125 -19.171875 C 12.632812 -19.453125 11.882812 -19.59375 10.875 -19.59375 L 8.5 -19.59375 C 7.8125 -19.59375 7.304688 -19.539062 6.984375 -19.4375 C 6.671875 -19.332031 6.457031 -19.117188 6.34375 -18.796875 C 6.226562 -18.472656 6.171875 -17.945312 6.171875 -17.21875 L 6.171875 -10.46875 L 8.0625 -10.46875 C 8.726562 -10.46875 9.242188 -10.625 9.609375 -10.9375 C 9.972656 -11.257812 10.21875 -11.632812 10.34375 -12.0625 C 10.46875 -12.488281 10.566406 -13.023438 10.640625 -13.671875 L 10.734375 -14.25 L 11.390625 -14.25 C 11.328125 -13.445312 11.296875 -12.550781 11.296875 -11.5625 L 11.296875 -10.1875 C 11.296875 -9.207031 11.351562 -7.851562 11.46875 -6.125 L 10.8125 -6.125 C 10.789062 -6.257812 10.734375 -6.722656 10.640625 -7.515625 C 10.546875 -8.304688 10.285156 -8.898438 9.859375 -9.296875 C 9.429688 -9.703125 8.832031 -9.90625 8.0625 -9.90625 L 6.171875 -9.90625 L 6.171875 -3.03125 C 6.171875 -2.3125 6.226562 -1.785156 6.34375 -1.453125 C 6.457031 -1.128906 6.671875 -0.914062 6.984375 -0.8125 C 7.304688 -0.707031 7.8125 -0.65625 8.5 -0.65625 L 10.578125 -0.65625 C 11.765625 -0.65625 12.664062 -0.8125 13.28125 -1.125 C 13.90625 -1.445312 14.359375 -1.953125 14.640625 -2.640625 C 14.929688 -3.335938 15.144531 -4.363281 15.28125 -5.71875 L 15.9375 -5.71875 C 15.875 -5.207031 15.84375 -4.519531 15.84375 -3.65625 Z M 15.84375 -3.65625 "/></g></g></g><g fill="#ffffff" fill-opacity="1"><g transform="translate(247.930956, 189.140253)"><g/></g></g><g fill="#ffffff" fill-opacity="1"><g transform="translate(255.052384, 189.140253)"><g><path d="M 9.015625 -20.25 C 12.390625 -20.25 14.914062 -19.40625 16.59375 -17.71875 C 18.269531 -16.03125 19.109375 -13.578125 19.109375 -10.359375 C 19.109375 -8.273438 18.695312 -6.453125 17.875 -4.890625 C 17.0625 -3.328125 15.875 -2.117188 14.3125 -1.265625 C 12.757812 -0.421875 10.90625 0 8.75 0 L 7.09375 -0.03125 C 6.03125 -0.0625 5.25 -0.078125 4.75 -0.078125 C 3.1875 -0.078125 2.003906 -0.0507812 1.203125 0 L 1.203125 -0.578125 C 1.890625 -0.609375 2.390625 -0.679688 2.703125 -0.796875 C 3.015625 -0.910156 3.226562 -1.128906 3.34375 -1.453125 C 3.457031 -1.785156 3.515625 -2.3125 3.515625 -3.03125 L 3.515625 -17.21875 C 3.515625 -17.945312 3.457031 -18.472656 3.34375 -18.796875 C 3.226562 -19.117188 3.015625 -19.335938 2.703125 -19.453125 C 2.390625 -19.566406 1.890625 -19.644531 1.203125 -19.6875 L 1.203125 -20.25 C 1.867188 -20.195312 2.796875 -20.171875 3.984375 -20.171875 L 6.40625 -20.203125 C 7.707031 -20.234375 8.578125 -20.25 9.015625 -20.25 Z M 8.296875 -19.734375 C 7.703125 -19.734375 7.253906 -19.664062 6.953125 -19.53125 C 6.660156 -19.40625 6.457031 -19.171875 6.34375 -18.828125 C 6.226562 -18.484375 6.171875 -17.96875 6.171875 -17.28125 L 6.171875 -2.96875 C 6.171875 -2.289062 6.226562 -1.78125 6.34375 -1.4375 C 6.457031 -1.09375 6.660156 -0.851562 6.953125 -0.71875 C 7.253906 -0.582031 7.710938 -0.515625 8.328125 -0.515625 C 10.347656 -0.515625 11.9375 -0.878906 13.09375 -1.609375 C 14.257812 -2.347656 15.078125 -3.421875 15.546875 -4.828125 C 16.015625 -6.242188 16.25 -8.046875 16.25 -10.234375 C 16.25 -12.429688 15.988281 -14.222656 15.46875 -15.609375 C 14.957031 -16.992188 14.125 -18.023438 12.96875 -18.703125 C 11.820312 -19.390625 10.265625 -19.734375 8.296875 -19.734375 Z M 8.296875 -19.734375 "/></g></g></g><g fill="#ffffff" fill-opacity="1"><g transform="translate(275.730285, 189.140253)"><g><path d="M 16.21875 -2.40625 C 16.675781 -1.21875 17.335938 -0.609375 18.203125 -0.578125 L 18.203125 0 C 17.429688 -0.0507812 16.410156 -0.078125 15.140625 -0.078125 C 13.492188 -0.078125 12.269531 -0.0507812 11.46875 0 L 11.46875 -0.578125 C 12.195312 -0.609375 12.71875 -0.695312 13.03125 -0.84375 C 13.34375 -0.988281 13.5 -1.25 13.5 -1.625 C 13.5 -1.945312 13.382812 -2.394531 13.15625 -2.96875 L 11.421875 -7.671875 L 4.484375 -7.671875 L 3.3125 -4.640625 C 2.9375 -3.609375 2.75 -2.820312 2.75 -2.28125 C 2.75 -1.695312 2.953125 -1.269531 3.359375 -1 C 3.773438 -0.726562 4.398438 -0.585938 5.234375 -0.578125 L 5.234375 0 C 4.148438 -0.0507812 3.054688 -0.078125 1.953125 -0.078125 C 1.085938 -0.078125 0.367188 -0.0507812 -0.203125 0 L -0.203125 -0.578125 C 0.753906 -0.804688 1.507812 -1.632812 2.0625 -3.0625 L 8.78125 -20.390625 L 9.234375 -20.390625 Z M 11.1875 -8.234375 L 7.984375 -16.796875 L 4.71875 -8.234375 Z M 11.1875 -8.234375 "/></g></g></g><g fill="#ffffff" fill-opacity="1"><g transform="translate(293.748366, 189.140253)"><g><path d="M 19.171875 -19.6875 C 18.503906 -19.644531 18.003906 -19.539062 17.671875 -19.375 C 17.347656 -19.21875 17.128906 -18.953125 17.015625 -18.578125 C 16.898438 -18.210938 16.84375 -17.664062 16.84375 -16.9375 L 16.84375 0.140625 L 16.1875 0.140625 L 4.171875 -18.421875 L 4.171875 -3.3125 C 4.171875 -2.570312 4.234375 -2.019531 4.359375 -1.65625 C 4.484375 -1.289062 4.726562 -1.023438 5.09375 -0.859375 C 5.457031 -0.703125 6.019531 -0.609375 6.78125 -0.578125 L 6.78125 0 C 6.09375 -0.0507812 5.117188 -0.078125 3.859375 -0.078125 C 2.710938 -0.078125 1.828125 -0.0507812 1.203125 0 L 1.203125 -0.578125 C 1.867188 -0.609375 2.363281 -0.703125 2.6875 -0.859375 C 3.007812 -1.023438 3.226562 -1.296875 3.34375 -1.671875 C 3.457031 -2.046875 3.515625 -2.59375 3.515625 -3.3125 L 3.515625 -17.21875 C 3.515625 -17.945312 3.457031 -18.472656 3.34375 -18.796875 C 3.226562 -19.117188 3.015625 -19.335938 2.703125 -19.453125 C 2.390625 -19.566406 1.890625 -19.644531 1.203125 -19.6875 L 1.203125 -20.25 C 1.828125 -20.195312 2.710938 -20.171875 3.859375 -20.171875 C 4.722656 -20.171875 5.46875 -20.195312 6.09375 -20.25 L 16.1875 -4.6875 L 16.1875 -16.9375 C 16.1875 -17.675781 16.125 -18.226562 16 -18.59375 C 15.882812 -18.957031 15.644531 -19.21875 15.28125 -19.375 C 14.914062 -19.539062 14.351562 -19.644531 13.59375 -19.6875 L 13.59375 -20.25 C 14.28125 -20.195312 15.25 -20.171875 16.5 -20.171875 C 17.644531 -20.171875 18.535156 -20.195312 19.171875 -20.25 Z M 19.171875 -19.6875 "/></g></g></g><g fill="#ffffff" fill-opacity="1"><g transform="translate(313.940065, 189.140253)"><g><path d="M 9.015625 -20.25 C 12.390625 -20.25 14.914062 -19.40625 16.59375 -17.71875 C 18.269531 -16.03125 19.109375 -13.578125 19.109375 -10.359375 C 19.109375 -8.273438 18.695312 -6.453125 17.875 -4.890625 C 17.0625 -3.328125 15.875 -2.117188 14.3125 -1.265625 C 12.757812 -0.421875 10.90625 0 8.75 0 L 7.09375 -0.03125 C 6.03125 -0.0625 5.25 -0.078125 4.75 -0.078125 C 3.1875 -0.078125 2.003906 -0.0507812 1.203125 0 L 1.203125 -0.578125 C 1.890625 -0.609375 2.390625 -0.679688 2.703125 -0.796875 C 3.015625 -0.910156 3.226562 -1.128906 3.34375 -1.453125 C 3.457031 -1.785156 3.515625 -2.3125 3.515625 -3.03125 L 3.515625 -17.21875 C 3.515625 -17.945312 3.457031 -18.472656 3.34375 -18.796875 C 3.226562 -19.117188 3.015625 -19.335938 2.703125 -19.453125 C 2.390625 -19.566406 1.890625 -19.644531 1.203125 -19.6875 L 1.203125 -20.25 C 1.867188 -20.195312 2.796875 -20.171875 3.984375 -20.171875 L 6.40625 -20.203125 C 7.707031 -20.234375 8.578125 -20.25 9.015625 -20.25 Z M 8.296875 -19.734375 C 7.703125 -19.734375 7.253906 -19.664062 6.953125 -19.53125 C 6.660156 -19.40625 6.457031 -19.171875 6.34375 -18.828125 C 6.226562 -18.484375 6.171875 -17.96875 6.171875 -17.28125 L 6.171875 -2.96875 C 6.171875 -2.289062 6.226562 -1.78125 6.34375 -1.4375 C 6.457031 -1.09375 6.660156 -0.851562 6.953125 -0.71875 C 7.253906 -0.582031 7.710938 -0.515625 8.328125 -0.515625 C 10.347656 -0.515625 11.9375 -0.878906 13.09375 -1.609375 C 14.257812 -2.347656 15.078125 -3.421875 15.546875 -4.828125 C 16.015625 -6.242188 16.25 -8.046875 16.25 -10.234375 C 16.25 -12.429688 15.988281 -14.222656 15.46875 -15.609375 C 14.957031 -16.992188 14.125 -18.023438 12.96875 -18.703125 C 11.820312 -19.390625 10.265625 -19.734375 8.296875 -19.734375 Z M 8.296875 -19.734375 "/></g></g></g><g fill="#ffffff" fill-opacity="1"><g transform="translate(334.617966, 189.140253)"><g><path d="M 14.671875 -20.171875 C 15.535156 -20.171875 16.253906 -20.195312 16.828125 -20.25 L 16.828125 -19.6875 C 16.441406 -19.59375 16.066406 -19.347656 15.703125 -18.953125 C 15.335938 -18.554688 14.945312 -17.953125 14.53125 -17.140625 L 10.046875 -8.234375 L 10.046875 -3.03125 C 10.046875 -2.3125 10.101562 -1.785156 10.21875 -1.453125 C 10.332031 -1.128906 10.546875 -0.910156 10.859375 -0.796875 C 11.171875 -0.679688 11.671875 -0.609375 12.359375 -0.578125 L 12.359375 0 C 11.484375 -0.0507812 10.269531 -0.078125 8.71875 -0.078125 C 7.082031 -0.078125 5.863281 -0.0507812 5.0625 0 L 5.0625 -0.578125 C 5.75 -0.609375 6.25 -0.679688 6.5625 -0.796875 C 6.875 -0.910156 7.085938 -1.128906 7.203125 -1.453125 C 7.316406 -1.785156 7.375 -2.3125 7.375 -3.03125 L 7.375 -7.328125 L 1.578125 -18.046875 C 1.234375 -18.679688 0.929688 -19.109375 0.671875 -19.328125 C 0.410156 -19.546875 0.160156 -19.65625 -0.078125 -19.65625 L -0.078125 -20.25 C 0.660156 -20.195312 1.5 -20.171875 2.4375 -20.171875 C 4.28125 -20.171875 5.613281 -20.195312 6.4375 -20.25 L 6.4375 -19.65625 C 5.101562 -19.65625 4.4375 -19.289062 4.4375 -18.5625 C 4.4375 -18.28125 4.53125 -17.945312 4.71875 -17.5625 L 9.46875 -8.4375 L 13.125 -15.703125 C 13.644531 -16.710938 13.90625 -17.535156 13.90625 -18.171875 C 13.90625 -18.703125 13.691406 -19.082031 13.265625 -19.3125 C 12.847656 -19.539062 12.222656 -19.664062 11.390625 -19.6875 L 11.390625 -20.25 C 12.472656 -20.195312 13.566406 -20.171875 14.671875 -20.171875 Z M 14.671875 -20.171875 "/></g></g></g></svg>