<svg height="200px" width="200px" version="1.1" id="Layer_1" xmlns="http://www.w3.org/2000/svg" xmlns:xlink="http://www.w3.org/1999/xlink" viewBox="0 0 512.001 512.001" xml:space="preserve" fill="#000000"><g id="SVGRepo_bgCarrier" stroke-width="0"></g><g id="SVGRepo_tracerCarrier" stroke-linecap="round" stroke-linejoin="round"></g><g id="SVGRepo_iconCarrier"> <circle style="fill:#5A42B4;" cx="256.006" cy="327.046" r="174.383"></circle> <path style="fill:#39B54A;" d="M190.27,84.727c26.523,26.523,73.883,22.166,73.883,22.166s4.359-47.36-22.165-73.883 s-73.883-22.165-73.883-22.165S163.747,58.204,190.27,84.727z"></path> <g> <path style="fill:#231F20;" d="M440.953,327.047L440.953,327.047c0-97.219-75.401-177.159-170.794-184.414 c4.283-36.264,13.803-72.967,28.384-109.268c2.176-5.416-0.451-11.571-5.868-13.747c-5.412-2.173-11.571,0.451-13.747,5.868 c-4.037,10.051-7.696,20.136-10.992,30.239c-3.822-10.69-9.646-21.36-18.475-30.188C219.774-4.151,169.272,0.125,167.135,0.32 c-5.071,0.466-9.089,4.484-9.556,9.556c-0.197,2.136-4.471,52.639,25.216,82.326c20.962,20.962,52.29,24.99,69.653,25.478 c-1.427,8.202-2.606,16.394-3.529,24.567c-98.712,3.736-177.871,85.193-177.871,184.803c0,101.982,82.968,184.952,184.952,184.952 S440.953,429.029,440.953,327.047L440.953,327.047L440.953,327.047z M336.828,327.047c0,26.644-3.335,52.043-9.184,74.551 c-19.186-7.113-39.762-11.316-61.073-12.361V264.858c21.31-1.046,41.887-5.251,61.073-12.364 C333.491,275.003,336.828,300.402,336.828,327.047z M245.432,243.694c-19.185-1.046-37.673-4.938-54.861-11.448 c12.836-35.883,32.574-61.336,54.861-67.54V243.694z M245.432,264.859v51.619h-70.076c0.757-22.786,3.933-44.473,9.003-63.985 C203.549,259.608,224.125,263.813,245.432,264.859z M245.432,337.616v51.621c-21.309,1.045-41.885,5.249-61.073,12.362 c-5.07-19.512-8.246-41.198-9.002-63.983L245.432,337.616L245.432,337.616z M245.432,410.401v78.987 c-22.287-6.204-42.025-31.659-54.862-67.542C207.759,415.337,226.246,411.446,245.432,410.401z M321.433,421.845 c-12.836,35.884-32.575,61.338-54.862,67.543v-78.987C285.758,411.447,304.245,415.338,321.433,421.845z M266.57,243.694v-78.988 c22.287,6.204,42.025,31.658,54.862,67.541C304.244,238.757,285.758,242.648,266.57,243.694z M329.988,198.833 c-4.979-9.5-10.441-17.881-16.293-25.101c19.798,7.475,37.78,18.677,53.085,32.751c-8.069,6.466-16.754,12.141-25.937,17 C337.643,214.775,334.02,206.525,329.988,198.833z M182.014,198.833c-4.031,7.692-7.655,15.942-10.856,24.649 c-9.182-4.858-17.868-10.533-25.939-16.998c15.306-14.075,33.288-25.277,53.087-32.753 C192.456,180.952,186.994,189.333,182.014,198.833z M164.658,243.913c-6.101,22.379-9.68,46.993-10.453,72.566H92.538 c2.299-35.913,16.217-68.712,38.033-94.672C141.071,230.396,152.499,237.788,164.658,243.913z M154.204,337.616 c0.774,25.571,4.352,50.184,10.453,72.562c-12.16,6.123-23.589,13.517-34.089,22.105c-21.814-25.959-35.731-58.755-38.029-94.667 h61.665V337.616z M171.157,430.607c3.202,8.71,6.825,16.961,10.857,24.654c4.979,9.5,10.441,17.882,16.293,25.101 c-19.801-7.476-37.785-18.68-53.092-32.757C153.286,441.14,161.974,435.465,171.157,430.607z M329.988,455.261 c4.032-7.693,7.656-15.944,10.858-24.654c9.183,4.858,17.871,10.534,25.94,16.999c-15.306,14.076-33.289,25.279-53.09,32.755 C319.547,473.142,325.009,464.761,329.988,455.261z M347.346,410.177c6.101-22.378,9.679-46.99,10.453-72.562h61.666 c-2.299,35.912-16.217,68.71-38.031,94.67C370.935,423.695,359.507,416.302,347.346,410.177z M357.799,316.478 c-0.775-25.572-4.352-50.185-10.455-72.564c12.159-6.126,23.587-13.519,34.085-22.109c21.817,25.96,35.737,58.76,38.036,94.673 H357.799z M197.743,77.254c-16.095-16.095-18.98-42.215-19.293-56.09c13.854,0.286,39.89,3.143,56.066,19.318 c10.925,10.925,15.76,26.466,17.84,39.665l-23.211-23.211c-4.127-4.127-10.819-4.127-14.947,0c-4.127,4.127-4.127,10.819,0,14.947 l23.267,23.267C224.281,93.085,208.737,88.247,197.743,77.254L197.743,77.254z"></path> <path style="fill:#231F20;" d="M299.526,337.615h1.057c5.836,0,10.569-4.732,10.569-10.569c0-5.837-4.733-10.569-10.569-10.569 h-1.057c-5.836,0-10.569,4.732-10.569,10.569C288.957,332.883,293.689,337.615,299.526,337.615z"></path> </g> </g></svg>